<svg width="512" height="512" viewBox="0 0 512 512" fill="none" xmlns="http://www.w3.org/2000/svg">
<g clip-path="url(#clip0_1_4)">
<rect width="512" height="512" rx="256" fill="white"/>
<rect width="512" height="512" rx="256" fill="black" fill-opacity="0.35" style="mix-blend-mode:luminosity"/>
<path d="M360.5 354.5C373.5 354.5 382.833 356.167 388.5 359.5C394.5 362.5 398.5 367 400.5 373C402.833 379 404 386.667 404 396C404 405.333 403.167 412.833 401.5 418.5C399.833 424.167 397.833 428.5 395.5 431.5C393.167 434.5 389.667 436.667 385 438C379.667 440 371.167 441 359.5 441H151.5C143.833 441 136.5 439 129.5 435C114.833 426.667 107.5 413.5 107.5 395.5C107.5 386.833 109.5 379.833 113.5 374.5L268.5 160H153.5C145.5 160 139.5 159.833 135.5 159.5C131.833 158.833 127.333 157.333 122 155C112.333 150.333 107.5 137.833 107.5 117.5C107.5 96.1666 112 83.1666 121 78.5C126 75.8333 130.333 74.3333 134 74C138 73.3333 144 73 152 73H353C360.667 73 368 75 375 79C382 83 387.333 88.3333 391 95C395 101.667 397 109.5 397 118.5C397 127.5 395 134.667 391 140L236 354.5H360.5Z" fill="#414141"/>
</g>
<defs>
<clipPath id="clip0_1_4">
<rect width="512" height="512" rx="256" fill="white"/>
</clipPath>
</defs>
</svg>
